# xmcd CD database file
#
# Track frame offsets:
#	150
#	19728
#	43872
#	66435
#	92488
#	116965
#	139881
#	168716
#	196055
#	218557
#	244577
#
# Disc length: 3490 seconds
#
# Revision: 1
# Processed by: cddbd v1.4PL0 Copyright (c) Steve Scherf et al.
# Submitted via: CDex 1.40Beta8
#
DISCID=9e0da00b
DTITLE=Jim K. and Co. - No Holding Back
DYEAR=1998
DGENRE=Blues
TTITLE0=Give It All You Got
TTITLE1=Keep On
TTITLE2=Straight From My Heart
TTITLE3=Let The Rain Come Down
TTITLE4=No Trace
TTITLE5=Pretty Darlin'
TTITLE6=Only One World
TTITLE7=Evening Star 
TTITLE8=Glass Of Wine
TTITLE9=Sure Thing
TTITLE10=Black and White
EXTD=YEAR: 1998 ID3G: 0
EXTT0=
EXTT1=
EXTT2=
EXTT3=
EXTT4=
EXTT5=
EXTT6=
EXTT7=
EXTT8=
EXTT9=
EXTT10=
PLAYORDER=
